<?xml version="1.0" encoding="UTF-8"?>
<!--Generator: Apple Native CoreSVG 341-->
<!DOCTYPE svg
PUBLIC "-//W3C//DTD SVG 1.1//EN"
       "http://www.w3.org/Graphics/SVG/1.1/DTD/svg11.dtd">
<svg version="1.1" xmlns="http://www.w3.org/2000/svg" xmlns:xlink="http://www.w3.org/1999/xlink" viewBox="0 0 124.617 113.09">
 <g>
  <rect height="113.09" opacity="0" width="124.617" x="0" y="0"/>
  <path d="M6.91644 109.719L16.4189 109.719C20.7764 109.719 23.3352 107.16 23.3352 102.803L23.3352 21.25C23.3352 16.8925 20.7764 14.3337 16.4189 14.3337L6.91644 14.3337C2.55896 14.3337 0.000225117 16.8925 0.000225117 21.25L0.000225117 102.803C0.000225117 107.16 2.55896 109.719 6.91644 109.719ZM36.3989 109.719L55.7289 109.719C60.1376 109.719 62.6964 107.16 62.6964 102.803L62.6964 38.6924C62.6964 34.335 60.1376 31.7762 55.7289 31.7762L36.3989 31.7762C32.0414 31.7762 29.4827 34.335 29.4827 38.6924L29.4827 102.803C29.4827 107.16 32.0414 109.719 36.3989 109.719ZM41.2614 50.9574C39.1714 50.9574 37.5814 49.3787 37.5814 47.3512C37.5814 45.3525 39.1601 43.7737 41.2614 43.7737L51.0764 43.7737C53.2276 43.7737 54.6426 45.3525 54.6426 47.3512C54.6426 49.3787 53.1151 50.9574 51.0764 50.9574ZM41.2614 97.7725C39.1601 97.7725 37.5814 96.1425 37.5814 94.155C37.5814 92.1675 39.1714 90.5775 41.2614 90.5775L51.0764 90.5775C53.1151 90.5775 54.6426 92.1675 54.6426 94.155C54.6426 96.1425 53.1151 97.7725 51.0764 97.7725ZM75.7601 109.719L87.6101 109.719C92.0188 109.719 94.5776 107.16 94.5776 102.803L94.5776 6.91621C94.5776 2.55873 92.0188 0 87.6101 0L75.7601 0C71.3514 0 68.8439 2.55873 68.8439 6.91621L68.8439 102.803C68.8439 107.16 71.3514 109.719 75.7601 109.719ZM110.721 109.94L118.529 108.836C122.824 108.262 125.025 105.5 124.554 101.154L115.15 20.2437C114.73 15.8862 111.916 13.5937 107.519 14.1675L99.7113 15.2712C95.4163 15.845 93.2151 18.6075 93.6863 22.9537L103.09 103.864C103.561 108.221 106.324 110.514 110.721 109.94Z" fill="white" fill-opacity="0.85"/>
 </g>
</svg>
