<?xml version="1.0" encoding="UTF-8"?>
<!--Generator: Apple Native CoreSVG 341-->
<!DOCTYPE svg
PUBLIC "-//W3C//DTD SVG 1.1//EN"
       "http://www.w3.org/Graphics/SVG/1.1/DTD/svg11.dtd">
<svg version="1.1" xmlns="http://www.w3.org/2000/svg" xmlns:xlink="http://www.w3.org/1999/xlink" viewBox="0 0 116.399 92.3575">
 <g>
  <rect height="92.3575" opacity="0" width="116.399" x="0" y="0"/>
  <path d="M17.9549 87.83L95.7938 87.83C105.92 87.83 111.137 82.655 110.687 72.4325L82 45.3862C79.875 43.4487 77.2612 42.46 74.7612 42.46C72.1362 42.46 69.6987 43.3862 67.46 45.3237L45.46 65.0112L36.4712 56.96C34.4087 55.1475 32.1475 54.21 29.8462 54.21C27.6937 54.21 25.6075 55.085 23.5962 56.8975L5.05997 73.4062C5.11122 82.7575 9.61119 87.83 17.9549 87.83ZM16.5787 92.3575L99.82 92.3575C110.789 92.3575 116.399 86.7475 116.399 75.9325L116.399 16.4875C116.399 5.67249 110.789 0.0625 99.82 0.0625L16.5787 0.0625C5.66124 0.0625 0 5.67249 0 16.4875L0 75.9325C0 86.7475 5.66124 92.3575 16.5787 92.3575ZM17.1987 81.6638C12.9912 81.6638 10.6424 79.4625 10.6424 75.0562L10.6424 17.3637C10.6424 12.9062 12.9912 10.7562 17.1987 10.7562L99.2 10.7562C103.408 10.7562 105.756 12.9062 105.756 17.3637L105.756 75.0562C105.756 79.4625 103.408 81.6638 99.2 81.6638Z" fill="white" fill-opacity="0.85"/>
  <path d="M38.2799 47.0175C44.7049 47.0175 49.9937 41.7287 49.9937 35.2412C49.9937 28.8162 44.7049 23.465 38.2799 23.465C31.7924 23.465 26.5037 28.8162 26.5037 35.2412C26.5037 41.7287 31.7924 47.0175 38.2799 47.0175Z" fill="white" fill-opacity="0.85"/>
 </g>
</svg>
