<?xml version="1.0" encoding="UTF-8"?>
<!--Generator: Apple Native CoreSVG 341-->
<!DOCTYPE svg
PUBLIC "-//W3C//DTD SVG 1.1//EN"
       "http://www.w3.org/Graphics/SVG/1.1/DTD/svg11.dtd">
<svg version="1.1" xmlns="http://www.w3.org/2000/svg" xmlns:xlink="http://www.w3.org/1999/xlink" viewBox="0 0 117.749 106.527">
 <g>
  <rect height="106.527" opacity="0" width="117.749" x="0" y="0"/>
  <path d="M58.8175 98.9662C92.7937 98.9662 117.749 78.1187 117.749 49.4262C117.749 20.7 92.6974 0 58.8175 0C24.9375 0 0 20.7 0 49.4262C0 59.6449 3.00874 67.9887 7.51125 74.7524C9.80125 78.2062 10.7537 80.6249 10.7537 82.9162C10.7537 85.5787 10.0212 87.6524 7.7275 89.7699C3.56124 93.3899 5.82875 98.9662 11.3975 98.9662C17.7987 98.9662 24.735 96.9437 29.9212 93.3649C38.38 97.0574 48.185 98.9662 58.8175 98.9662ZM58.8175 88.4362C49.7262 88.4362 41.5724 86.7087 34.6062 83.72C30.9425 82.1012 28.2337 82.4312 24.87 84.2962C23.4924 85.1387 22.0237 85.8675 20.2887 86.4587C20.8524 85.0087 21.1599 83.5112 21.1599 81.7462C21.1599 78.0137 19.6162 73.8325 16.5024 69.105C12.6212 63.5587 10.5299 56.825 10.5299 49.4262C10.5299 26.9862 30.4012 10.5299 58.8175 10.5299C87.3075 10.5299 107.167 26.9974 107.167 49.4262C107.167 71.9062 87.3075 88.4362 58.8175 88.4362Z" fill="white" fill-opacity="0.85"/>
  <path d="M57.7275 59.26C60.7599 59.26 62.6612 57.5325 62.7962 55.3225C62.8074 55.2375 62.8187 55.0387 62.8299 54.965C62.9762 52.48 64.7362 50.8375 67.8237 48.87C72.5724 45.7737 75.9624 42.9437 75.9624 37.0549C75.9624 28.4687 68.2637 23.8012 59.4037 23.8012C50.8462 23.8012 45.0237 27.53 43.3662 32.0175C43.02 32.9262 42.8212 33.7725 42.8212 34.7037C42.8212 37.3162 44.8887 38.9099 47.0612 38.9099C49.0149 38.9099 50.2974 38.0687 51.4049 36.7287L52.3099 35.6074C54.2374 33.1912 56.2962 32.2524 58.7475 32.2524C62.4112 32.2524 64.8737 34.4474 64.8737 37.5937C64.8737 40.6812 62.72 42.04 58.7075 44.8762C55.3325 47.1887 52.6037 49.7237 52.6037 54.2962C52.6037 54.41 52.6037 54.5125 52.6037 54.6262C52.6037 57.7212 54.4137 59.26 57.7275 59.26ZM57.6875 74.6087C60.9799 74.6087 63.7687 72.2225 63.7687 68.8837C63.7687 65.5562 61.0312 63.1587 57.6875 63.1587C54.2925 63.1587 51.5325 65.5962 51.5325 68.8837C51.5325 72.1712 54.3437 74.6087 57.6875 74.6087Z" fill="white" fill-opacity="0.85"/>
 </g>
</svg>
