<?xml version="1.0" encoding="UTF-8"?>
<!--Generator: Apple Native CoreSVG 341-->
<!DOCTYPE svg
PUBLIC "-//W3C//DTD SVG 1.1//EN"
       "http://www.w3.org/Graphics/SVG/1.1/DTD/svg11.dtd">
<svg version="1.1" xmlns="http://www.w3.org/2000/svg" xmlns:xlink="http://www.w3.org/1999/xlink" viewBox="0 0 97.2549 120.567">
 <g>
  <rect height="120.567" opacity="0" width="97.2549" x="0" y="0"/>
  <path d="M34.2575 94.2037C36.5512 94.2037 38.0162 92.7675 37.9537 90.65L36.5162 40.3224C36.4537 38.165 34.9662 36.7912 32.7862 36.7912C30.5662 36.7912 29.0612 38.2162 29.1237 40.3337L30.5612 90.6725C30.6237 92.83 32.1112 94.2037 34.2575 94.2037ZM48.6275 94.2037C50.8875 94.2037 52.415 92.79 52.415 90.6837L52.415 40.3112C52.415 38.205 50.8875 36.7912 48.6275 36.7912C46.3675 36.7912 44.84 38.205 44.84 40.3112L44.84 90.6837C44.84 92.79 46.3675 94.2037 48.6275 94.2037ZM63.0487 94.2037C65.1437 94.2037 66.6825 92.83 66.745 90.6725L68.1312 40.3337C68.1937 38.2162 66.74 36.7912 64.4687 36.7912C62.2887 36.7912 60.8012 38.2162 60.7387 40.3224L59.3525 90.65C59.29 92.7675 60.755 94.2037 63.0487 94.2037ZM26.0612 23.085L36.0837 23.085L36.0837 12.9337C36.0837 10.5962 37.7275 9.08872 40.1837 9.08872L57.02 9.08872C59.425 9.08872 61.0687 10.5962 61.0687 12.9337L61.0687 23.085L71.1424 23.085L71.1424 12.3762C71.1424 4.63 66.1724 0 57.7462 0L39.4062 0C31.0312 0 26.0612 4.63 26.0612 12.3762ZM4.75497 28.9624L92.5 28.9624C95.1949 28.9624 97.2549 26.8962 97.2549 24.2012C97.2549 21.5287 95.1437 19.4625 92.5 19.4625L4.75497 19.4625C2.16249 19.4625 0 21.5287 0 24.2012C0 26.8962 2.16249 28.9624 4.75497 28.9624ZM26.0312 111.139L71.275 111.139C79.1624 111.139 84.1324 106.491 84.5187 98.5412L87.7349 28.0137L77.695 28.0137L74.615 96.94C74.49 99.775 72.75 101.571 70.0787 101.571L27.125 101.571C24.5562 101.571 22.7649 99.7237 22.6399 96.94L19.4062 28.0137L9.51999 28.0137L12.7875 98.5925C13.1737 106.542 18.0412 111.139 26.0312 111.139Z" fill="white" fill-opacity="0.85"/>
 </g>
</svg>
