<?xml version="1.0" encoding="UTF-8"?>
<!--Generator: Apple Native CoreSVG 341-->
<!DOCTYPE svg
PUBLIC "-//W3C//DTD SVG 1.1//EN"
       "http://www.w3.org/Graphics/SVG/1.1/DTD/svg11.dtd">
<svg version="1.1" xmlns="http://www.w3.org/2000/svg" xmlns:xlink="http://www.w3.org/1999/xlink" viewBox="0 0 89.4562 125.725">
 <g>
  <rect height="125.725" opacity="0" width="89.4562" x="0" y="0"/>
  <path d="M89.4562 57.945L89.4562 95.8825C89.4562 109.521 81.8274 117.099 68.1887 117.099L21.2675 117.099C7.62874 117.099 0 109.521 0 95.8825L0 57.945C0 44.3062 7.62874 36.6775 21.2675 36.6775L29.9462 36.6775L29.9462 47.3199L21.5375 47.3199C14.5774 47.3199 10.6424 51.2662 10.6424 58.2262L10.6424 95.6012C10.6424 102.561 14.5774 106.456 21.5375 106.456L67.9187 106.456C74.8787 106.456 78.8138 102.561 78.8138 95.6012L78.8138 58.2262C78.8138 51.2662 74.8787 47.3199 67.9187 47.3199L59.4587 47.3199L59.4587 36.6775L68.1887 36.6775C81.8274 36.6775 89.4562 44.3062 89.4562 57.945Z" fill="white" fill-opacity="0.85"/>
  <path d="M44.7025 9.73375C41.9675 9.73375 39.68 12.015 39.68 14.6425L39.68 62.8975L40.6212 77.8787C40.78 80.1037 42.4775 81.96 44.7025 81.96C46.9787 81.96 48.6762 80.1037 48.835 77.8787L49.7762 62.8975L49.7762 14.6425C49.7762 12.015 47.4887 9.73375 44.7025 9.73375ZM27.915 58.88C25.445 58.88 23.4762 60.6625 23.4762 63.2225C23.4762 64.5337 23.9587 65.4875 24.9012 66.43L40.9412 81.7312C42.235 83.0137 43.3975 83.4562 44.7025 83.4562C46.0587 83.4562 47.2212 83.0137 48.5149 81.7312L64.5549 66.43C65.4462 65.4875 65.9799 64.5337 65.9799 63.2225C65.9799 60.6625 63.96 58.88 61.49 58.88C60.2187 58.88 58.9925 59.385 58.1012 60.3387L51.71 67.2875L44.7025 75.8125L37.7462 67.2875L31.3037 60.3387C30.4637 59.385 29.1862 58.88 27.915 58.88Z" fill="white" fill-opacity="0.85"/>
 </g>
</svg>
