<?xml version="1.0" encoding="UTF-8"?>
<!--Generator: Apple Native CoreSVG 341-->
<!DOCTYPE svg
PUBLIC "-//W3C//DTD SVG 1.1//EN"
       "http://www.w3.org/Graphics/SVG/1.1/DTD/svg11.dtd">
<svg version="1.1" xmlns="http://www.w3.org/2000/svg" xmlns:xlink="http://www.w3.org/1999/xlink" viewBox="0 0 89.4562 133.822">
 <g>
  <rect height="133.822" opacity="0" width="89.4562" x="0" y="0"/>
  <path d="M89.4562 61.9937L89.4562 99.9312C89.4562 113.57 81.8274 121.147 68.1887 121.147L21.2675 121.147C7.62874 121.147 0 113.57 0 99.9312L0 61.9937C0 48.3549 7.62874 40.7262 21.2675 40.7262L29.9462 40.7262L29.9462 51.3686L21.5375 51.3686C14.5774 51.3686 10.6424 55.3149 10.6424 62.2749L10.6424 99.6499C10.6424 106.61 14.5774 110.505 21.5375 110.505L67.9187 110.505C74.8787 110.505 78.8138 106.61 78.8138 99.6499L78.8138 62.2749C78.8138 55.3149 74.8787 51.3686 67.9187 51.3686L59.4587 51.3686L59.4587 40.7262L68.1887 40.7262C81.8274 40.7262 89.4562 48.3549 89.4562 61.9937Z" fill="white" fill-opacity="0.85"/>
  <path d="M49.314 20.8152L49.7762 28.1712L49.7762 76.375C49.7762 79.0537 47.4887 81.2837 44.7025 81.2837C41.9675 81.2837 39.68 79.0537 39.68 76.375L39.68 28.1712L40.1436 20.7919L44.7025 15.205Z" fill="white" fill-opacity="0.85"/>
  <path d="M27.915 32.1887C29.135 32.1887 30.4637 31.6837 31.3037 30.6787L37.7462 23.7299L44.7025 15.205L51.71 23.7299L58.1012 30.6787C58.9925 31.6837 60.2187 32.1887 61.49 32.1887C63.96 32.1887 65.9799 30.355 65.9799 27.8462C65.9799 26.535 65.4462 25.53 64.5549 24.6387L48.5149 9.33749C47.2212 8.00374 46.0587 7.6125 44.7025 7.6125C43.3975 7.6125 42.235 8.00374 40.89 9.33749L24.9012 24.6387C23.9587 25.53 23.4762 26.535 23.4762 27.8462C23.4762 30.355 25.445 32.1887 27.915 32.1887Z" fill="white" fill-opacity="0.85"/>
 </g>
</svg>
